<svg width="28" height="27" viewBox="0 0 28 27" fill="none" xmlns="http://www.w3.org/2000/svg">
<path d="M14 0.666687C6.6333 0.666687 0.666628 6.63335 0.666628 14C0.665116 16.7991 1.54505 19.5275 3.18158 21.7983C4.81812 24.069 7.12815 25.7668 9.78396 26.6507C10.4506 26.7667 10.7 26.3667 10.7 26.016C10.7 25.7 10.6826 24.6507 10.6826 23.5334C7.33329 24.1507 6.46663 22.7174 6.19996 21.9667C6.04929 21.5827 5.39996 20.4 4.83329 20.0827C4.36663 19.8334 3.69996 19.216 4.81596 19.2C5.86663 19.1827 6.61596 20.1667 6.86663 20.5667C8.06663 22.5827 9.98396 22.016 10.7493 21.6667C10.8666 20.8 11.216 20.2174 11.6 19.884C8.6333 19.5507 5.53329 18.4 5.53329 13.3C5.53329 11.8494 6.04929 10.6507 6.89996 9.71602C6.76663 9.38269 6.29996 8.01602 7.03329 6.18269C7.03329 6.18269 8.14929 5.83335 10.7 7.55069C11.7854 7.24943 12.9068 7.09781 14.0333 7.10002C15.1666 7.10002 16.3 7.24935 17.3666 7.54935C19.916 5.81602 21.0333 6.18402 21.0333 6.18402C21.7666 8.01735 21.3 9.38402 21.1666 9.71735C22.016 10.6507 22.5333 11.8334 22.5333 13.3C22.5333 18.4174 19.4173 19.5507 16.4506 19.884C16.9333 20.3 17.3506 21.1 17.3506 22.3507C17.3506 24.1334 17.3333 25.5667 17.3333 26.0174C17.3333 26.3667 17.584 26.7827 18.2506 26.6494C20.8973 25.7558 23.1972 24.0547 24.8265 21.7856C26.4558 19.5164 27.3325 16.7935 27.3333 14C27.3333 6.63335 21.3666 0.666687 14 0.666687Z" fill="#607B96"/>
</svg>
