<svg width="18" height="16" viewBox="0 0 18 16" fill="none" xmlns="http://www.w3.org/2000/svg">
<path d="M18 4.53333V14.9333C18 15.1632 17.9052 15.3836 17.7364 15.5462C17.5676 15.7087 17.3387 15.8 17.1 15.8H0.9C0.661305 15.8 0.432387 15.7087 0.263604 15.5462C0.0948211 15.3836 0 15.1632 0 14.9333V3.66666H17.1C17.3387 3.66666 17.5676 3.75797 17.7364 3.9205C17.9052 4.08304 18 4.30348 18 4.53333ZM9.3726 1.93333H0V1.06666C0 0.836809 0.0948211 0.616369 0.263604 0.453838C0.432387 0.291306 0.661305 0.199997 0.9 0.199997H7.5726L9.3726 1.93333Z" fill="#43D9AD"/>
</svg>
